# xmcd
#
# Track frame offsets:
#	150
#	14825
#	29560
#	49937
#	62265
#	76185
#	96015
#	108685
#	120565
#	133290
#	149110
#	163530
#	176685
#	191050
#	207015
#	224345
#
# Disc length: 3235
#
# Revision: 3
# Processed by: cddbd v1.5.1PL0 Copyright (c) Steve Scherf et al.
# Submitted via: VisiTrax 2.9.5.180 - For more info visit www.synapsa.com
# Normalized: r2:DSETVAR1
#
DISCID=f10ca110
DTITLE=Various Artist - Real Country cd 1
DYEAR=1900
DGENRE=
TTITLE0=John Denver - Take me home country roads
TTITLE1=Olivia Newton-John - Banks of the Ohio
TTITLE2=Smokie - Rock'n' Roll Rodeo
TTITLE3=Patsy Cline - Crazy
TTITLE4=Don Williams - Crying in the rain
TTITLE5=Ester Brohus - The perfect way
TTITLE6=Lynn Andersen - Rose Garden
TTITLE7=Charlie Rich - The most beautiful girl
TTITLE8=Dr Hook featuring Ray Sawyer - Only sixsteen
TTITLE9=Reba Mcentire - I'd rather ride around with you
TTITLE10=The Bellamy brothers - If I said you had a beautiful body
TTITLE11=The Judds - Girls night out
TTITLE12=The Beach Boys and T Graham Brown - Help me Rhonda
TTITLE13=Emmylou Harris - Crescent city
TTITLE14=Kenny Rogers - Lady
TTITLE15=Vince Gill - When love finds you
EXTD=
EXTT0=
EXTT1=
EXTT2=
EXTT3=
EXTT4=
EXTT5=
EXTT6=
EXTT7=
EXTT8=
EXTT9=
EXTT10=
EXTT11=
EXTT12=
EXTT13=
EXTT14=
EXTT15=
PLAYORDER=
